<svg width="21" height="46" viewBox="0 0 21 46" fill="none" xmlns="http://www.w3.org/2000/svg">
<path d="M0.076416 24.6129C0.076416 21.9515 0.076416 19.2901 0.076416 16.6311C0.116384 16.6335 0.156352 16.6359 0.19632 16.6359C2.13372 16.6359 4.07111 16.6359 6.00641 16.6359C6.16418 16.6359 6.15366 16.6575 6.15366 16.4703C6.15366 14.5696 6.15576 12.6665 6.15366 10.7659C6.15366 10.1971 6.17469 9.63075 6.22939 9.06679C6.27356 8.59642 6.34088 8.12845 6.42923 7.66768C6.5891 6.84214 6.8226 6.04299 7.14865 5.28465C7.74396 3.89754 8.59171 2.75762 9.71502 1.88888C10.4828 1.29612 11.32 0.878545 12.2099 0.597764C12.6116 0.470573 13.0218 0.374579 13.4341 0.307384C13.6571 0.268986 13.8801 0.247388 14.1031 0.22099C14.4165 0.182592 14.7321 0.165793 15.0476 0.168193C15.6387 0.172993 16.2298 0.187392 16.8209 0.199391C17.0733 0.204191 17.3258 0.21619 17.5803 0.225789C17.7191 0.230589 17.858 0.237788 17.9968 0.247388C18.2513 0.264187 18.508 0.283385 18.7625 0.300184C18.956 0.314583 19.1475 0.324183 19.341 0.343381C19.646 0.372179 19.951 0.405777 20.2561 0.436975C20.3507 0.446574 20.4454 0.463373 20.5421 0.477772C20.5421 2.85601 20.5421 5.22705 20.5421 7.60769C20.5001 7.60769 20.4643 7.60769 20.4286 7.60769C19.2884 7.60769 18.1483 7.61009 17.006 7.60769C16.6274 7.60769 16.2508 7.62209 15.8743 7.68208C15.5461 7.73488 15.2264 7.81887 14.9214 7.96046C14.2861 8.25564 13.8464 8.76681 13.6108 9.50596C13.4909 9.88273 13.4236 10.2739 13.3984 10.6723C13.3752 11.0539 13.3668 11.4378 13.3647 11.8194C13.3605 12.8033 13.3626 13.7849 13.3626 14.7688C13.3626 15.3424 13.3626 15.9183 13.3626 16.4919C13.3626 16.5351 13.3689 16.5783 13.3731 16.6287C13.6403 16.6287 13.8948 16.6287 14.1515 16.6287C14.4081 16.6287 14.6626 16.6287 14.9193 16.6287C15.1759 16.6287 15.4304 16.6287 15.6871 16.6287C15.9437 16.6287 16.1983 16.6287 16.4549 16.6287C16.7136 16.6287 16.9724 16.6287 17.2311 16.6287C17.4877 16.6287 17.7423 16.6287 17.9989 16.6287C18.2556 16.6287 18.5101 16.6287 18.7667 16.6287C19.0234 16.6287 19.2779 16.6287 19.5345 16.6287C19.7891 16.6311 20.0436 16.6239 20.3044 16.6335C20.031 19.0573 19.7575 21.4667 19.4861 23.8762C19.4609 24.0922 19.4378 24.3082 19.4146 24.5217C19.4125 24.5337 19.4104 24.5481 19.4062 24.5601C19.4041 24.5673 19.402 24.5721 19.3999 24.5769C19.3978 24.5793 19.3978 24.5841 19.3957 24.5841C19.3936 24.5865 19.3915 24.5889 19.3747 24.6009C17.3847 24.6009 15.3821 24.6009 13.3668 24.6009C13.3647 24.6657 13.3626 24.7185 13.3626 24.7737C13.3626 31.4909 13.3626 38.208 13.3626 44.9228C13.3626 44.9612 13.3647 44.9995 13.3626 45.0403C13.3605 45.0643 13.3563 45.0883 13.3542 45.1123C13.2406 45.1315 6.22308 45.1267 6.14945 45.1051C6.14945 45.0571 6.14945 45.0067 6.14945 44.9564C6.14945 38.2224 6.14945 31.4909 6.14945 24.7569C6.14945 24.5817 6.15576 24.6009 6.01061 24.6009C4.06901 24.6009 2.1253 24.6009 0.183699 24.6009C0.150041 24.6081 0.11428 24.6105 0.076416 24.6129Z" fill="white"/>
</svg>
