<svg width="42" height="46" viewBox="0 0 42 46" fill="none" xmlns="http://www.w3.org/2000/svg">
<g clip-path="url(#clip0_21_19)">
<mask id="path-1-inside-1_21_19" fill="white">
<path d="M10.6844 22.4732C10.6833 20.1843 11.2991 17.9465 12.4536 16.0432C13.6082 14.1399 15.2497 12.6567 17.1702 11.7816C19.0907 10.9064 21.2038 10.6785 23.242 11.1268C25.2802 11.5751 27.1517 12.6794 28.6196 14.2999C30.0875 15.9204 31.0857 17.9841 31.4878 20.2298C31.89 22.4755 31.6779 24.8021 30.8785 26.9149C30.0792 29.0278 28.7284 30.8319 26.9974 32.0988C25.2663 33.3657 23.2328 34.0383 21.1544 34.0316C19.7773 34.0319 18.4136 33.7329 17.1415 33.1518C15.8695 32.5707 14.7141 31.7188 13.7414 30.6451C12.7688 29.5714 11.9982 28.2969 11.4736 26.8946C10.949 25.4923 10.6808 23.9898 10.6844 22.4732ZM21.1762 14.9644C19.8276 14.966 18.5097 15.4083 17.3894 16.2352C16.2691 17.0621 15.3968 18.2366 14.883 19.6098C14.3691 20.983 14.2368 22.4932 14.5028 23.9493C14.7688 25.4053 15.4211 26.7417 16.3771 27.7893C17.3332 28.8368 18.55 29.5484 19.8735 29.834C21.197 30.1195 22.5677 29.9661 23.812 29.3932C25.0563 28.8204 26.1182 27.8538 26.8634 26.6159C27.6086 25.378 28.0035 23.9244 27.9981 22.4392C27.9857 20.4544 27.2618 18.5554 25.9842 17.1555C24.7065 15.7555 22.9785 14.9681 21.1762 14.9644Z"/>
</mask>
<path d="M10.6844 22.4732C10.6833 20.1843 11.2991 17.9465 12.4536 16.0432C13.6082 14.1399 15.2497 12.6567 17.1702 11.7816C19.0907 10.9064 21.2038 10.6785 23.242 11.1268C25.2802 11.5751 27.1517 12.6794 28.6196 14.2999C30.0875 15.9204 31.0857 17.9841 31.4878 20.2298C31.89 22.4755 31.6779 24.8021 30.8785 26.9149C30.0792 29.0278 28.7284 30.8319 26.9974 32.0988C25.2663 33.3657 23.2328 34.0383 21.1544 34.0316C19.7773 34.0319 18.4136 33.7329 17.1415 33.1518C15.8695 32.5707 14.7141 31.7188 13.7414 30.6451C12.7688 29.5714 11.9982 28.2969 11.4736 26.8946C10.949 25.4923 10.6808 23.9898 10.6844 22.4732ZM21.1762 14.9644C19.8276 14.966 18.5097 15.4083 17.3894 16.2352C16.2691 17.0621 15.3968 18.2366 14.883 19.6098C14.3691 20.983 14.2368 22.4932 14.5028 23.9493C14.7688 25.4053 15.4211 26.7417 16.3771 27.7893C17.3332 28.8368 18.55 29.5484 19.8735 29.834C21.197 30.1195 22.5677 29.9661 23.812 29.3932C25.0563 28.8204 26.1182 27.8538 26.8634 26.6159C27.6086 25.378 28.0035 23.9244 27.9981 22.4392C27.9857 20.4544 27.2618 18.5554 25.9842 17.1555C24.7065 15.7555 22.9785 14.9681 21.1762 14.9644Z" fill="#FAA43F" fill-opacity="0.9"/>
<path d="M21.1544 34.0316L21.1706 29.0316L21.162 29.0316L21.1534 29.0316L21.1544 34.0316ZM21.1762 14.9644L21.1864 9.96443L21.1783 9.96441L21.1703 9.96442L21.1762 14.9644ZM27.9981 22.4392L32.9981 22.421L32.998 22.4078L27.9981 22.4392ZM15.6844 22.4708C15.6837 21.07 16.0626 19.7343 16.7286 18.6364L8.17871 13.4499C6.53555 16.1586 5.68291 19.2985 5.68439 22.4755L15.6844 22.4708ZM16.7286 18.6364C17.3925 17.542 18.2882 16.7668 19.2436 16.3314L15.0968 7.23172C12.2112 8.54672 9.82391 10.7378 8.17871 13.4499L16.7286 18.6364ZM19.2436 16.3314C20.1908 15.8997 21.2002 15.7972 22.1679 16.0101L24.3161 6.24351C21.2075 5.55976 17.9906 5.91296 15.0968 7.23172L19.2436 16.3314ZM22.1679 16.0101C23.1414 16.2242 24.108 16.7669 24.9139 17.6566L32.3253 10.9431C30.1954 8.59185 27.419 6.926 24.3161 6.24351L22.1679 16.0101ZM24.9139 17.6566C25.7243 18.5513 26.3217 19.7462 26.5661 21.1111L36.4096 19.3485C35.8497 16.222 34.4507 13.2894 32.3253 10.9431L24.9139 17.6566ZM26.5661 21.1111C26.8106 22.4766 26.6783 23.8867 26.202 25.1457L35.555 28.6842C36.6775 25.7174 36.9693 22.4743 36.4096 19.3485L26.5661 21.1111ZM26.202 25.1457C25.7264 26.4029 24.951 27.4004 24.0444 28.0639L29.9503 36.1337C32.5058 34.2634 34.432 31.6527 35.555 28.6842L26.202 25.1457ZM24.0444 28.0639C23.1451 28.7221 22.1456 29.0348 21.1706 29.0316L21.1382 39.0316C24.3201 39.0419 27.3876 38.0092 29.9503 36.1337L24.0444 28.0639ZM21.1534 29.0316C20.505 29.0317 19.8492 28.8917 19.2192 28.6039L15.0639 37.6997C16.9779 38.5741 19.0496 39.032 21.1554 39.0316L21.1534 29.0316ZM19.2192 28.6039C18.5874 28.3152 17.9804 27.877 17.4471 27.2884L10.0357 34.0019C11.4477 35.5606 13.1516 36.8261 15.0639 37.6997L19.2192 28.6039ZM17.4471 27.2884C16.913 26.6987 16.4673 25.9732 16.1566 25.1427L6.79053 28.6465C7.529 30.6205 8.62463 32.4441 10.0357 34.0019L17.4471 27.2884ZM16.1566 25.1427C15.8458 24.3119 15.6822 23.4074 15.6844 22.485L5.68441 22.4614C5.67941 24.5722 6.05217 26.6727 6.79053 28.6465L16.1566 25.1427ZM21.1703 9.96442C18.7184 9.96732 16.3687 10.774 14.42 12.2124L20.3588 20.258C20.6506 20.0426 20.9368 19.9647 21.1822 19.9644L21.1703 9.96442ZM14.42 12.2124C12.4785 13.6455 11.0344 15.628 10.2001 17.8574L19.5659 21.3621C19.7593 20.8451 20.0597 20.4787 20.3588 20.258L14.42 12.2124ZM10.2001 17.8574C9.36648 20.0852 9.1575 22.5119 9.58419 24.8478L19.4214 23.0508C19.3161 22.4745 19.3718 21.8808 19.5659 21.3621L10.2001 17.8574ZM9.58419 24.8478C10.011 27.1842 11.0673 29.3885 12.684 31.1599L20.0703 24.4187C19.7749 24.095 19.5266 23.6265 19.4214 23.0508L9.58419 24.8478ZM12.684 31.1599C14.3052 32.9363 16.4296 34.206 18.8191 34.7215L20.9279 24.9464C20.6704 24.8908 20.3612 24.7374 20.0703 24.4187L12.684 31.1599ZM18.8191 34.7215C21.2142 35.2382 23.6877 34.9549 25.9029 33.935L21.721 24.8515C21.4476 24.9773 21.1798 25.0008 20.9279 24.9464L18.8191 34.7215ZM25.9029 33.935C28.1099 32.919 29.9145 31.2423 31.1472 29.1946L22.5797 24.0372C22.322 24.4653 22.0026 24.7218 21.721 24.8515L25.9029 33.935ZM31.1472 29.1946C32.3778 27.1502 33.0067 24.7942 32.9981 22.421L22.9981 22.4573C23.0003 23.0545 22.8394 23.6058 22.5797 24.0372L31.1472 29.1946ZM32.998 22.4078C32.9782 19.2507 31.8306 16.1442 29.6773 13.7849L22.291 20.526C22.6931 20.9665 22.9931 21.6581 22.9982 22.4705L32.998 22.4078ZM29.6773 13.7849C27.5097 11.4098 24.47 9.97107 21.1864 9.96443L21.1661 19.9644C21.487 19.9651 21.9034 20.1013 22.291 20.526L29.6773 13.7849Z" fill="white" mask="url(#path-1-inside-1_21_19)"/>
<mask id="path-3-inside-2_21_19" fill="white">
<path d="M34.5527 10.4584C34.5513 10.9932 34.406 11.5156 34.1351 11.9596C33.8643 12.4036 33.4801 12.7492 33.031 12.9529C32.582 13.1566 32.0881 13.2091 31.612 13.104C31.1358 12.9988 30.6986 12.7406 30.3555 12.362C30.0125 11.9834 29.779 11.5013 29.6845 10.9767C29.5901 10.452 29.6389 9.90831 29.8249 9.4142C30.0108 8.92009 30.3255 8.49774 30.7293 8.20046C31.133 7.90319 31.6077 7.74432 32.0934 7.74392C32.4172 7.74233 32.7381 7.81149 33.0375 7.94742C33.3369 8.08334 33.6088 8.28332 33.8376 8.53578C34.0663 8.78823 34.2473 9.08815 34.37 9.41817C34.4928 9.74819 34.5549 10.1017 34.5527 10.4584Z"/>
</mask>
<path d="M34.5527 10.4584C34.5513 10.9932 34.406 11.5156 34.1351 11.9596C33.8643 12.4036 33.4801 12.7492 33.031 12.9529C32.582 13.1566 32.0881 13.2091 31.612 13.104C31.1358 12.9988 30.6986 12.7406 30.3555 12.362C30.0125 11.9834 29.779 11.5013 29.6845 10.9767C29.5901 10.452 29.6389 9.90831 29.8249 9.4142C30.0108 8.92009 30.3255 8.49774 30.7293 8.20046C31.133 7.90319 31.6077 7.74432 32.0934 7.74392C32.4172 7.74233 32.7381 7.81149 33.0375 7.94742C33.3369 8.08334 33.6088 8.28332 33.8376 8.53578C34.0663 8.78823 34.2473 9.08815 34.37 9.41817C34.4928 9.74819 34.5549 10.1017 34.5527 10.4584Z" fill="white"/>
<path d="M34.5527 10.4584L29.5528 10.428L29.5528 10.4365L29.5527 10.4449L34.5527 10.4584ZM32.0934 7.74392L32.0975 12.7439L32.1077 12.7439L32.118 12.7439L32.0934 7.74392ZM29.5527 10.4449C29.5537 10.093 29.6474 9.71515 29.8667 9.35576L38.4036 14.5634C39.1645 13.3161 39.5489 11.8934 39.5527 10.4718L29.5527 10.4449ZM29.8667 9.35576C30.088 8.99298 30.4502 8.63318 30.9658 8.39934L35.0963 17.5064C36.51 16.8653 37.6407 15.8142 38.4036 14.5634L29.8667 9.35576ZM30.9658 8.39934C31.4896 8.16178 32.098 8.09082 32.6902 8.22163L30.5337 17.9863C32.0783 18.3275 33.6743 18.1514 35.0963 17.5064L30.9658 8.39934ZM32.6902 8.22163C33.2769 8.35118 33.7429 8.65386 34.0609 9.00485L26.6502 15.7191C27.6542 16.8274 28.9947 17.6464 30.5337 17.9863L32.6902 8.22163ZM34.0609 9.00485C34.3744 9.35089 34.5416 9.73612 34.6055 10.0908L24.7636 11.8625C25.0164 13.2665 25.6506 14.6158 26.6502 15.7191L34.0609 9.00485ZM34.6055 10.0908C34.6692 10.445 34.6395 10.8163 34.5045 11.1752L25.1453 7.65319C24.6383 9.00028 24.511 10.4591 24.7636 11.8625L34.6055 10.0908ZM34.5045 11.1752C34.3688 11.5358 34.1111 11.9196 33.6938 12.2268L27.7647 4.17414C26.54 5.0759 25.6528 6.30442 25.1453 7.65319L34.5045 11.1752ZM33.6938 12.2268C33.2694 12.5393 32.7135 12.7434 32.0975 12.7439L32.0893 2.74393C30.5019 2.74523 28.9966 3.26709 27.7647 4.17414L33.6938 12.2268ZM32.118 12.7439C31.7092 12.7459 31.3176 12.6577 30.9706 12.5002L35.1044 3.39463C34.1586 2.96526 33.1251 2.73878 32.0687 2.74398L32.118 12.7439ZM30.9706 12.5002C30.6253 12.3435 30.3453 12.1281 30.1322 11.8929L37.5429 5.17863C36.8724 4.43855 36.0484 3.82322 35.1044 3.39463L30.9706 12.5002ZM30.1322 11.8929C29.92 11.6588 29.7749 11.4064 29.6838 11.1614L39.0563 7.67497C38.7197 6.76992 38.2125 5.91772 37.5429 5.17863L30.1322 11.8929ZM29.6838 11.1614C29.5927 10.9167 29.5514 10.6687 29.5528 10.428L39.5526 10.4888C39.5584 9.53477 39.3929 8.57972 39.0563 7.67497L29.6838 11.1614Z" fill="#1A3B59" mask="url(#path-3-inside-2_21_19)"/>
<path d="M29.9812 2.22696H12.204C6.85722 2.22696 2.52283 7.00033 2.52283 12.8886V32.3561C2.52283 38.2444 6.85722 43.0177 12.204 43.0177H29.9812C35.3279 43.0177 39.6623 38.2444 39.6623 32.3561V12.8886C39.6623 7.00033 35.3279 2.22696 29.9812 2.22696Z" stroke="white" stroke-width="5" stroke-miterlimit="10"/>
</g>
<defs>
<clipPath id="clip0_21_19">
<rect width="40.9567" height="44.9946" fill="white" transform="translate(0.614166 0.125)"/>
</clipPath>
</defs>
</svg>
