<svg width="433" height="142" viewBox="0 0 433 142" fill="none" xmlns="http://www.w3.org/2000/svg">
<path d="M5.64167 7C5.64167 6.4 5.95278 6.1 6.575 6.1C7.175 6.1 7.475 6.4 7.475 7V42.0667H26.775C27.3972 42.0667 27.7083 42.3778 27.7083 43C27.7083 43.5778 27.3972 43.8667 26.775 43.8667H6.575C6.24167 43.8667 5.99722 43.7667 5.84167 43.5667C5.70833 43.3667 5.64167 43.1778 5.64167 43V7ZM0.408334 47.6C0.408334 48.5333 0.875 49 1.80833 49H30.375C30.8194 48.9778 31.1639 48.8222 31.4083 48.5333C31.675 48.2444 31.8083 47.9111 31.8083 47.5333V39.1C31.8083 38.6556 31.6639 38.3111 31.375 38.0667C31.1083 37.8 30.775 37.6667 30.375 37.6667H12.775V2.86666C12.775 2.42222 12.6194 2.07778 12.3083 1.83333C12.0194 1.56666 11.6861 1.43333 11.3083 1.43333H1.84167C1.39722 1.43333 1.04167 1.57778 0.775 1.86666C0.530556 2.15555 0.408334 2.48889 0.408334 2.86666V47.6ZM35.3083 25.3C35.3083 28.6778 35.9417 31.8556 37.2083 34.8333C38.4972 37.7889 40.2417 40.3667 42.4417 42.5667C44.6639 44.7667 47.2639 46.5111 50.2417 47.8C53.2194 49.0667 56.3972 49.7 59.775 49.7C63.1528 49.7 66.3194 49.0667 69.275 47.8C72.2528 46.5111 74.8528 44.7667 77.075 42.5667C79.2972 40.3667 81.0417 37.7889 82.3083 34.8333C83.5972 31.8556 84.2417 28.6778 84.2417 25.3C84.2417 21.9222 83.5972 18.7444 82.3083 15.7667C81.0417 12.7889 79.2972 10.1889 77.075 7.96666C74.8528 5.74444 72.2528 3.98889 69.275 2.7C66.3194 1.41111 63.1528 0.766663 59.775 0.766663C56.3972 0.766663 53.2194 1.41111 50.2417 2.7C47.2639 3.98889 44.6639 5.74444 42.4417 7.96666C40.2417 10.1889 38.4972 12.7889 37.2083 15.7667C35.9417 18.7444 35.3083 21.9222 35.3083 25.3ZM47.675 25.2667C47.675 23.4889 47.975 21.8333 48.575 20.3C49.175 18.7667 50.0083 17.4222 51.075 16.2667C52.1639 15.1111 53.4417 14.2111 54.9083 13.5667C56.3972 12.9 58.0194 12.5667 59.775 12.5667C61.5528 12.5667 63.175 12.9 64.6417 13.5667C66.1306 14.2111 67.4083 15.1111 68.475 16.2667C69.5639 17.4222 70.4083 18.7667 71.0083 20.3C71.6083 21.8333 71.9083 23.4889 71.9083 25.2667C71.9083 27.0222 71.6083 28.6778 71.0083 30.2333C70.4083 31.7667 69.5639 33.1 68.475 34.2333C67.4083 35.3667 66.1306 36.2667 64.6417 36.9333C63.175 37.5778 61.5528 37.9 59.775 37.9C58.0194 37.9 56.3972 37.5778 54.9083 36.9333C53.4417 36.2667 52.1639 35.3667 51.075 34.2333C50.0083 33.1 49.175 31.7667 48.575 30.2333C47.975 28.6778 47.675 27.0222 47.675 25.2667ZM40.2083 25.2C40.2083 22.4889 40.7194 19.9333 41.7417 17.5333C42.7639 15.1333 44.1528 13.0444 45.9083 11.2667C47.6861 9.46667 49.7639 8.04444 52.1417 7C54.5194 5.95555 57.0528 5.43333 59.7417 5.43333C62.4083 5.43333 64.9194 5.95555 67.275 7C69.6306 8.04444 71.6861 9.46667 73.4417 11.2667C75.2194 13.0444 76.6194 15.1333 77.6417 17.5333C78.6861 19.9333 79.2083 22.4889 79.2083 25.2C79.2083 27.9111 78.6861 30.4667 77.6417 32.8667C76.6194 35.2444 75.2194 37.3222 73.4417 39.1C71.6861 40.8778 69.6306 42.2889 67.275 43.3333C64.9194 44.3556 62.4083 44.8667 59.7417 44.8667C57.0528 44.8667 54.5194 44.3556 52.1417 43.3333C49.7639 42.2889 47.6861 40.8778 45.9083 39.1C44.1528 37.3222 42.7639 35.2444 41.7417 32.8667C40.7194 30.4667 40.2083 27.9111 40.2083 25.2ZM42.175 25.2C42.175 27.6444 42.6306 29.9444 43.5417 32.1C44.475 34.2333 45.7306 36.1 47.3083 37.7C48.9083 39.3 50.775 40.5667 52.9083 41.5C55.0417 42.4333 57.3194 42.9 59.7417 42.9C62.1417 42.9 64.3972 42.4333 66.5083 41.5C68.6417 40.5667 70.5083 39.3 72.1083 37.7C73.7083 36.1 74.9639 34.2333 75.875 32.1C76.8083 29.9444 77.275 27.6444 77.275 25.2C77.275 22.7556 76.8083 20.4556 75.875 18.3C74.9639 16.1444 73.7083 14.2667 72.1083 12.6667C70.5083 11.0444 68.6417 9.76666 66.5083 8.83333C64.3972 7.9 62.1417 7.43333 59.7417 7.43333C57.3194 7.43333 55.0417 7.9 52.9083 8.83333C50.775 9.76666 48.9083 11.0444 47.3083 12.6667C45.7306 14.2667 44.475 16.1444 43.5417 18.3C42.6306 20.4556 42.175 22.7556 42.175 25.2ZM89.8708 25.3C89.8708 28.6778 90.5042 31.8556 91.7708 34.8333C93.0597 37.7889 94.8042 40.3667 97.0042 42.5667C99.2264 44.7667 101.826 46.5111 104.804 47.8C107.782 49.0667 110.96 49.7 114.338 49.7C117.715 49.7 120.882 49.0667 123.838 47.8C126.815 46.5111 129.415 44.7667 131.638 42.5667C133.86 40.3667 135.604 37.7889 136.871 34.8333C138.16 31.8556 138.804 28.6778 138.804 25.3C138.804 21.9222 138.16 18.7444 136.871 15.7667C135.604 12.7889 133.86 10.1889 131.638 7.96666C129.415 5.74444 126.815 3.98889 123.838 2.7C120.882 1.41111 117.715 0.766663 114.338 0.766663C110.96 0.766663 107.782 1.41111 104.804 2.7C101.826 3.98889 99.2264 5.74444 97.0042 7.96666C94.8042 10.1889 93.0597 12.7889 91.7708 15.7667C90.5042 18.7444 89.8708 21.9222 89.8708 25.3ZM102.238 25.2667C102.238 23.4889 102.538 21.8333 103.138 20.3C103.738 18.7667 104.571 17.4222 105.638 16.2667C106.726 15.1111 108.004 14.2111 109.471 13.5667C110.96 12.9 112.582 12.5667 114.338 12.5667C116.115 12.5667 117.738 12.9 119.204 13.5667C120.693 14.2111 121.971 15.1111 123.038 16.2667C124.126 17.4222 124.971 18.7667 125.571 20.3C126.171 21.8333 126.471 23.4889 126.471 25.2667C126.471 27.0222 126.171 28.6778 125.571 30.2333C124.971 31.7667 124.126 33.1 123.038 34.2333C121.971 35.3667 120.693 36.2667 119.204 36.9333C117.738 37.5778 116.115 37.9 114.338 37.9C112.582 37.9 110.96 37.5778 109.471 36.9333C108.004 36.2667 106.726 35.3667 105.638 34.2333C104.571 33.1 103.738 31.7667 103.138 30.2333C102.538 28.6778 102.238 27.0222 102.238 25.2667ZM94.7708 25.2C94.7708 22.4889 95.2819 19.9333 96.3042 17.5333C97.3264 15.1333 98.7153 13.0444 100.471 11.2667C102.249 9.46667 104.326 8.04444 106.704 7C109.082 5.95555 111.615 5.43333 114.304 5.43333C116.971 5.43333 119.482 5.95555 121.838 7C124.193 8.04444 126.249 9.46667 128.004 11.2667C129.782 13.0444 131.182 15.1333 132.204 17.5333C133.249 19.9333 133.771 22.4889 133.771 25.2C133.771 27.9111 133.249 30.4667 132.204 32.8667C131.182 35.2444 129.782 37.3222 128.004 39.1C126.249 40.8778 124.193 42.2889 121.838 43.3333C119.482 44.3556 116.971 44.8667 114.304 44.8667C111.615 44.8667 109.082 44.3556 106.704 43.3333C104.326 42.2889 102.249 40.8778 100.471 39.1C98.7153 37.3222 97.3264 35.2444 96.3042 32.8667C95.2819 30.4667 94.7708 27.9111 94.7708 25.2ZM96.7375 25.2C96.7375 27.6444 97.1931 29.9444 98.1042 32.1C99.0375 34.2333 100.293 36.1 101.871 37.7C103.471 39.3 105.338 40.5667 107.471 41.5C109.604 42.4333 111.882 42.9 114.304 42.9C116.704 42.9 118.96 42.4333 121.071 41.5C123.204 40.5667 125.071 39.3 126.671 37.7C128.271 36.1 129.526 34.2333 130.438 32.1C131.371 29.9444 131.838 27.6444 131.838 25.2C131.838 22.7556 131.371 20.4556 130.438 18.3C129.526 16.1444 128.271 14.2667 126.671 12.6667C125.071 11.0444 123.204 9.76666 121.071 8.83333C118.96 7.9 116.704 7.43333 114.304 7.43333C111.882 7.43333 109.604 7.9 107.471 8.83333C105.338 9.76666 103.471 11.0444 101.871 12.6667C100.293 14.2667 99.0375 16.1444 98.1042 18.3C97.1931 20.4556 96.7375 22.7556 96.7375 25.2ZM176.9 5.7C177.078 5.45555 177.3 5.33333 177.567 5.33333C177.811 5.33333 178.022 5.42222 178.2 5.6C178.444 5.84444 178.567 6.06666 178.567 6.26666C178.567 6.44444 178.467 6.65555 178.267 6.9L165.633 21.3333L180.267 43.0667C180.578 43.5778 180.489 44.0222 180 44.4C179.778 44.5111 179.6 44.5667 179.467 44.5667C179.222 44.5667 178.978 44.4111 178.733 44.1L164.367 22.7667L153.9 35.4V43.8C153.9 44.4 153.6 44.7 153 44.7C152.378 44.7 152.067 44.4 152.067 43.8V6.63333C152.067 6.03333 152.378 5.73333 153 5.73333C153.6 5.73333 153.9 6.03333 153.9 6.63333V32.6333L163.333 21.2L176.9 5.7ZM146.6 47.6C146.6 48.5333 147.078 49 148.033 49H157.467C158.489 49 159 48.5333 159 47.6V35.7667L163.067 31.0667C164.133 32.6444 165.111 34.1222 166 35.5C166.911 36.8556 167.8 38.1889 168.667 39.5C169.533 40.8111 170.433 42.1444 171.367 43.5C172.3 44.8333 173.333 46.2667 174.467 47.8C174.711 48.1778 175 48.4778 175.333 48.7C175.667 48.9 176.022 49 176.4 49H188.5C188.967 49 189.2 48.8444 189.2 48.5333C189.2 48.2667 189.089 47.9778 188.867 47.6667L171.667 21.6L187.267 2.7C187.489 2.41111 187.6 2.15555 187.6 1.93333C187.6 1.6 187.344 1.43333 186.833 1.43333H174.7C174.322 1.43333 173.944 1.54444 173.567 1.76666C173.211 1.98889 172.911 2.28889 172.667 2.66666C170.378 5.64444 168.1 8.58889 165.833 11.5C163.589 14.4111 161.311 17.3556 159 20.3333V2.9C159 2.45555 158.822 2.11111 158.467 1.86666C158.111 1.6 157.778 1.46666 157.467 1.46666H148C147.556 1.46666 147.211 1.61111 146.967 1.9C146.722 2.18889 146.6 2.52222 146.6 2.9V47.6ZM248.938 41.6667C247.426 42.6667 245.793 43.4444 244.038 44C242.282 44.5556 240.438 44.8444 238.504 44.8667H238.304C235.615 44.8667 233.082 44.3556 230.704 43.3333C228.349 42.2889 226.282 40.8778 224.504 39.1C222.749 37.3222 221.36 35.2444 220.338 32.8667C219.315 30.4667 218.804 27.9111 218.804 25.2C218.804 22.4889 219.315 19.9333 220.338 17.5333C221.36 15.1333 222.749 13.0444 224.504 11.2667C226.282 9.46667 228.349 8.04444 230.704 7C233.082 5.95555 235.615 5.43333 238.304 5.43333C239.86 5.43333 241.315 5.6 242.671 5.93333C244.026 6.26666 245.371 6.76666 246.704 7.43333C246.771 7.54444 246.826 7.66667 246.871 7.8C246.938 7.91111 246.971 8.04444 246.971 8.2C246.971 8.46666 246.882 8.68889 246.704 8.86666C246.526 9.04444 246.304 9.13333 246.038 9.13333C245.838 9.13333 245.649 9.1 245.471 9.03333C244.338 8.47778 243.193 8.07778 242.038 7.83333C240.882 7.56666 239.638 7.43333 238.304 7.43333C235.882 7.43333 233.604 7.9 231.471 8.83333C229.338 9.76666 227.471 11.0444 225.871 12.6667C224.293 14.2667 223.038 16.1444 222.104 18.3C221.193 20.4556 220.738 22.7556 220.738 25.2C220.738 27.6444 221.193 29.9444 222.104 32.1C223.038 34.2333 224.293 36.1 225.871 37.7C227.471 39.3 229.338 40.5667 231.471 41.5C233.604 42.4333 235.882 42.9 238.304 42.9H238.838C240.438 42.8556 241.971 42.6 243.438 42.1333C244.926 41.6667 246.326 41.0222 247.638 40.2V33.2333C247.638 32.6333 247.938 32.3333 248.538 32.3333C248.871 32.3333 249.104 32.4111 249.238 32.5667C249.371 32.7 249.438 32.9222 249.438 33.2333V40.5C249.438 40.6778 249.415 40.8778 249.371 41.1C249.326 41.3 249.182 41.4889 248.938 41.6667ZM245.571 14.9C245.904 15.1 246.193 15.2 246.438 15.2C246.638 15.2 246.826 15.1333 247.004 15C247.182 14.8667 247.36 14.6889 247.538 14.4667L252.704 7C252.86 6.75555 252.938 6.5 252.938 6.23333C252.938 5.96666 252.838 5.72222 252.638 5.5C252.46 5.27777 252.249 5.08889 252.004 4.93333C249.982 3.57778 247.838 2.54444 245.571 1.83333C243.304 1.12222 240.893 0.766663 238.338 0.766663C234.96 0.766663 231.782 1.41111 228.804 2.7C225.849 3.98889 223.26 5.74444 221.038 7.96666C218.838 10.1889 217.093 12.7889 215.804 15.7667C214.538 18.7444 213.904 21.9222 213.904 25.3C213.904 28.6778 214.538 31.8556 215.804 34.8333C217.093 37.7889 218.838 40.3667 221.038 42.5667C223.26 44.7667 225.849 46.5111 228.804 47.8C231.782 49.0667 234.96 49.7 238.338 49.7C239.604 49.7 240.915 49.6222 242.271 49.4667C243.649 49.3111 244.993 49.0778 246.304 48.7667C247.638 48.4333 248.904 48.0222 250.104 47.5333C251.326 47.0222 252.438 46.4333 253.438 45.7667C254.06 45.3889 254.371 44.9222 254.371 44.3667V28.8667C254.371 28.4222 254.182 28.0778 253.804 27.8333C253.449 27.5889 253.115 27.4667 252.804 27.4667H244.104C243.638 27.4667 243.282 27.6 243.038 27.8667C242.815 28.1333 242.704 28.4667 242.704 28.8667V37.2667C241.86 37.4444 241.071 37.5889 240.338 37.7C239.626 37.7889 238.882 37.8333 238.104 37.8333C236.349 37.8333 234.726 37.5111 233.238 36.8667C231.771 36.2 230.504 35.3 229.438 34.1667C228.371 33.0111 227.538 31.6667 226.938 30.1333C226.36 28.6 226.071 26.9556 226.071 25.2C226.071 23.4444 226.36 21.8 226.938 20.2667C227.538 18.7111 228.371 17.3556 229.438 16.2C230.504 15.0444 231.771 14.1333 233.238 13.4667C234.726 12.8 236.349 12.4667 238.104 12.4667C239.526 12.4667 240.86 12.6778 242.104 13.1C243.349 13.5222 244.504 14.1222 245.571 14.9ZM261.433 25.3C261.433 28.6778 262.067 31.8556 263.333 34.8333C264.622 37.7889 266.367 40.3667 268.567 42.5667C270.789 44.7667 273.389 46.5111 276.367 47.8C279.344 49.0667 282.522 49.7 285.9 49.7C289.278 49.7 292.444 49.0667 295.4 47.8C298.378 46.5111 300.978 44.7667 303.2 42.5667C305.422 40.3667 307.167 37.7889 308.433 34.8333C309.722 31.8556 310.367 28.6778 310.367 25.3C310.367 21.9222 309.722 18.7444 308.433 15.7667C307.167 12.7889 305.422 10.1889 303.2 7.96666C300.978 5.74444 298.378 3.98889 295.4 2.7C292.444 1.41111 289.278 0.766663 285.9 0.766663C282.522 0.766663 279.344 1.41111 276.367 2.7C273.389 3.98889 270.789 5.74444 268.567 7.96666C266.367 10.1889 264.622 12.7889 263.333 15.7667C262.067 18.7444 261.433 21.9222 261.433 25.3ZM273.8 25.2667C273.8 23.4889 274.1 21.8333 274.7 20.3C275.3 18.7667 276.133 17.4222 277.2 16.2667C278.289 15.1111 279.567 14.2111 281.033 13.5667C282.522 12.9 284.144 12.5667 285.9 12.5667C287.678 12.5667 289.3 12.9 290.767 13.5667C292.256 14.2111 293.533 15.1111 294.6 16.2667C295.689 17.4222 296.533 18.7667 297.133 20.3C297.733 21.8333 298.033 23.4889 298.033 25.2667C298.033 27.0222 297.733 28.6778 297.133 30.2333C296.533 31.7667 295.689 33.1 294.6 34.2333C293.533 35.3667 292.256 36.2667 290.767 36.9333C289.3 37.5778 287.678 37.9 285.9 37.9C284.144 37.9 282.522 37.5778 281.033 36.9333C279.567 36.2667 278.289 35.3667 277.2 34.2333C276.133 33.1 275.3 31.7667 274.7 30.2333C274.1 28.6778 273.8 27.0222 273.8 25.2667ZM266.333 25.2C266.333 22.4889 266.844 19.9333 267.867 17.5333C268.889 15.1333 270.278 13.0444 272.033 11.2667C273.811 9.46667 275.889 8.04444 278.267 7C280.644 5.95555 283.178 5.43333 285.867 5.43333C288.533 5.43333 291.044 5.95555 293.4 7C295.756 8.04444 297.811 9.46667 299.567 11.2667C301.344 13.0444 302.744 15.1333 303.767 17.5333C304.811 19.9333 305.333 22.4889 305.333 25.2C305.333 27.9111 304.811 30.4667 303.767 32.8667C302.744 35.2444 301.344 37.3222 299.567 39.1C297.811 40.8778 295.756 42.2889 293.4 43.3333C291.044 44.3556 288.533 44.8667 285.867 44.8667C283.178 44.8667 280.644 44.3556 278.267 43.3333C275.889 42.2889 273.811 40.8778 272.033 39.1C270.278 37.3222 268.889 35.2444 267.867 32.8667C266.844 30.4667 266.333 27.9111 266.333 25.2ZM268.3 25.2C268.3 27.6444 268.756 29.9444 269.667 32.1C270.6 34.2333 271.856 36.1 273.433 37.7C275.033 39.3 276.9 40.5667 279.033 41.5C281.167 42.4333 283.444 42.9 285.867 42.9C288.267 42.9 290.522 42.4333 292.633 41.5C294.767 40.5667 296.633 39.3 298.233 37.7C299.833 36.1 301.089 34.2333 302 32.1C302.933 29.9444 303.4 27.6444 303.4 25.2C303.4 22.7556 302.933 20.4556 302 18.3C301.089 16.1444 299.833 14.2667 298.233 12.6667C296.633 11.0444 294.767 9.76666 292.633 8.83333C290.522 7.9 288.267 7.43333 285.867 7.43333C283.444 7.43333 281.167 7.9 279.033 8.83333C276.9 9.76666 275.033 11.0444 273.433 12.6667C271.856 14.2667 270.6 16.1444 269.667 18.3C268.756 20.4556 268.3 22.7556 268.3 25.2ZM315.996 25.3C315.996 28.6778 316.629 31.8556 317.896 34.8333C319.185 37.7889 320.929 40.3667 323.129 42.5667C325.351 44.7667 327.951 46.5111 330.929 47.8C333.907 49.0667 337.085 49.7 340.463 49.7C343.84 49.7 347.007 49.0667 349.963 47.8C352.94 46.5111 355.54 44.7667 357.763 42.5667C359.985 40.3667 361.729 37.7889 362.996 34.8333C364.285 31.8556 364.929 28.6778 364.929 25.3C364.929 21.9222 364.285 18.7444 362.996 15.7667C361.729 12.7889 359.985 10.1889 357.763 7.96666C355.54 5.74444 352.94 3.98889 349.963 2.7C347.007 1.41111 343.84 0.766663 340.463 0.766663C337.085 0.766663 333.907 1.41111 330.929 2.7C327.951 3.98889 325.351 5.74444 323.129 7.96666C320.929 10.1889 319.185 12.7889 317.896 15.7667C316.629 18.7444 315.996 21.9222 315.996 25.3ZM328.363 25.2667C328.363 23.4889 328.663 21.8333 329.263 20.3C329.863 18.7667 330.696 17.4222 331.763 16.2667C332.851 15.1111 334.129 14.2111 335.596 13.5667C337.085 12.9 338.707 12.5667 340.463 12.5667C342.24 12.5667 343.863 12.9 345.329 13.5667C346.818 14.2111 348.096 15.1111 349.163 16.2667C350.251 17.4222 351.096 18.7667 351.696 20.3C352.296 21.8333 352.596 23.4889 352.596 25.2667C352.596 27.0222 352.296 28.6778 351.696 30.2333C351.096 31.7667 350.251 33.1 349.163 34.2333C348.096 35.3667 346.818 36.2667 345.329 36.9333C343.863 37.5778 342.24 37.9 340.463 37.9C338.707 37.9 337.085 37.5778 335.596 36.9333C334.129 36.2667 332.851 35.3667 331.763 34.2333C330.696 33.1 329.863 31.7667 329.263 30.2333C328.663 28.6778 328.363 27.0222 328.363 25.2667ZM320.896 25.2C320.896 22.4889 321.407 19.9333 322.429 17.5333C323.451 15.1333 324.84 13.0444 326.596 11.2667C328.374 9.46667 330.451 8.04444 332.829 7C335.207 5.95555 337.74 5.43333 340.429 5.43333C343.096 5.43333 345.607 5.95555 347.963 7C350.318 8.04444 352.374 9.46667 354.129 11.2667C355.907 13.0444 357.307 15.1333 358.329 17.5333C359.374 19.9333 359.896 22.4889 359.896 25.2C359.896 27.9111 359.374 30.4667 358.329 32.8667C357.307 35.2444 355.907 37.3222 354.129 39.1C352.374 40.8778 350.318 42.2889 347.963 43.3333C345.607 44.3556 343.096 44.8667 340.429 44.8667C337.74 44.8667 335.207 44.3556 332.829 43.3333C330.451 42.2889 328.374 40.8778 326.596 39.1C324.84 37.3222 323.451 35.2444 322.429 32.8667C321.407 30.4667 320.896 27.9111 320.896 25.2ZM322.863 25.2C322.863 27.6444 323.318 29.9444 324.229 32.1C325.163 34.2333 326.418 36.1 327.996 37.7C329.596 39.3 331.463 40.5667 333.596 41.5C335.729 42.4333 338.007 42.9 340.429 42.9C342.829 42.9 345.085 42.4333 347.196 41.5C349.329 40.5667 351.196 39.3 352.796 37.7C354.396 36.1 355.651 34.2333 356.563 32.1C357.496 29.9444 357.963 27.6444 357.963 25.2C357.963 22.7556 357.496 20.4556 356.563 18.3C355.651 16.1444 354.396 14.2667 352.796 12.6667C351.196 11.0444 349.329 9.76666 347.196 8.83333C345.085 7.9 342.829 7.43333 340.429 7.43333C338.007 7.43333 335.729 7.9 333.596 8.83333C331.463 9.76666 329.596 11.0444 327.996 12.6667C326.418 14.2667 325.163 16.1444 324.229 18.3C323.318 20.4556 322.863 22.7556 322.863 25.2ZM388.858 12.9333C390.614 12.9333 392.269 13.2444 393.825 13.8667C395.381 14.4667 396.736 15.3222 397.892 16.4333C399.047 17.5222 399.958 18.8222 400.625 20.3333C401.292 21.8222 401.625 23.4667 401.625 25.2667C401.625 26.9556 401.325 28.5111 400.725 29.9333C400.147 31.3556 399.336 32.6 398.292 33.6667C397.269 34.7333 396.058 35.5889 394.658 36.2333C393.281 36.8778 391.792 37.2667 390.192 37.4C389.725 37.4444 389.258 37.4778 388.792 37.5C388.325 37.5222 387.836 37.5333 387.325 37.5333H384.658V12.9333H388.858ZM377.658 7.16666C377.703 6.54444 377.969 6.23333 378.458 6.23333H389.858C392.503 6.23333 394.992 6.72222 397.325 7.7C399.658 8.67778 401.692 10.0222 403.425 11.7333C405.181 13.4222 406.569 15.4333 407.592 17.7667C408.614 20.0778 409.125 22.5778 409.125 25.2667C409.125 27.9556 408.614 30.4889 407.592 32.8667C406.569 35.2222 405.181 37.2778 403.425 39.0333C401.669 40.7889 399.614 42.1778 397.258 43.2C394.903 44.2 392.403 44.7 389.758 44.7H378.458C378.192 44.7 377.992 44.6111 377.858 44.4333C377.725 44.2556 377.658 44.0444 377.658 43.8V7.16666ZM413.925 25.3C413.925 21.9222 413.281 18.7889 411.992 15.9C410.725 12.9889 408.981 10.4667 406.758 8.33333C404.558 6.17778 401.969 4.48889 398.992 3.26666C396.036 2.04444 392.881 1.43333 389.525 1.43333H373.725C373.236 1.43333 372.869 1.57778 372.625 1.86666C372.381 2.15555 372.258 2.52222 372.258 2.96666V47.6667C372.258 48.2222 372.403 48.5889 372.692 48.7667C373.003 48.9222 373.347 49 373.725 49H389.525C392.903 49 396.069 48.4 399.025 47.2C402.003 46 404.592 44.3444 406.792 42.2333C408.992 40.1 410.725 37.5889 411.992 34.7C413.281 31.8111 413.925 28.6778 413.925 25.3ZM389.858 42.9C392.214 42.9 394.436 42.4444 396.525 41.5333C398.636 40.6 400.481 39.3333 402.058 37.7333C403.636 36.1333 404.881 34.2667 405.792 32.1333C406.725 29.9778 407.192 27.6889 407.192 25.2667C407.192 22.8444 406.725 20.5889 405.792 18.5C404.881 16.3889 403.636 14.5667 402.058 13.0333C400.481 11.4778 398.625 10.2667 396.492 9.4C394.381 8.51111 392.136 8.06667 389.758 8.06667H379.492V42.9H389.858ZM426.062 43.7667C426.062 43.4556 426.129 43.2111 426.263 43.0333C426.418 42.8556 426.718 42.7667 427.163 42.7667C427.629 42.7667 428.018 42.9444 428.329 43.3C428.663 43.6556 428.929 44.1 429.129 44.6333C429.329 45.1667 429.463 45.7556 429.529 46.4C429.618 47.0222 429.663 47.6111 429.663 48.1667C429.663 49.4111 429.54 50.5 429.296 51.4333C429.074 52.3889 428.807 53.1778 428.496 53.8C428.185 54.4444 427.874 54.9222 427.563 55.2333C427.251 55.5667 427.007 55.7333 426.829 55.7333C426.74 55.7333 426.651 55.6889 426.563 55.6L426.163 55.2C426.096 55.1333 426.062 55.0556 426.062 54.9667C426.062 54.8333 426.163 54.6222 426.363 54.3333C426.563 54.0444 426.785 53.6667 427.029 53.2C427.274 52.7556 427.496 52.2111 427.696 51.5667C427.896 50.9222 427.996 50.1778 427.996 49.3333C427.996 48.2222 427.951 47.3556 427.863 46.7333C427.796 46.1111 427.707 45.6444 427.596 45.3333C427.485 45 427.363 44.8 427.229 44.7333C427.096 44.6444 426.974 44.6 426.863 44.6H426.829C426.496 44.6 426.285 44.5333 426.196 44.4C426.107 44.2444 426.062 44.0333 426.062 43.7667ZM421.429 47.6C421.429 48.5333 421.863 49 422.729 49H424.563C424.94 49 425.129 49.2222 425.129 49.6667C425.129 50.6667 424.985 51.4889 424.696 52.1333C424.407 52.7778 424.085 53.3222 423.729 53.7667C423.374 54.2111 423.051 54.5778 422.763 54.8667C422.474 55.1556 422.329 55.4444 422.329 55.7333C422.329 55.9111 422.363 56.0778 422.429 56.2333C422.518 56.3889 422.685 56.5667 422.929 56.7667L425.129 58.6C425.285 58.7111 425.429 58.8111 425.562 58.9C425.718 58.9889 425.951 59.0333 426.263 59.0333C426.507 59.0333 426.663 59.0111 426.729 58.9667C427.685 58.4333 428.529 57.7889 429.263 57.0333C430.018 56.3 430.651 55.5 431.163 54.6333C431.696 53.7667 432.096 52.8556 432.363 51.9C432.629 50.9444 432.763 49.9667 432.763 48.9667V39.8C432.763 39.3556 432.607 39.0111 432.296 38.7667C431.985 38.5 431.64 38.3667 431.263 38.3667H422.829C422.363 38.3667 422.007 38.5 421.763 38.7667C421.54 39.0111 421.429 39.3556 421.429 39.8V47.6ZM16.025 139.667C16.025 140.444 16.4139 140.889 17.1917 141H26.9583C27.9361 141 28.425 140.544 28.425 139.633V124.967H42.8583C43.3028 124.967 43.6361 124.778 43.8583 124.4C44.1028 124.022 44.225 123.644 44.225 123.267V115.8C44.225 115.289 44.0806 114.922 43.7917 114.7C43.525 114.478 43.1917 114.367 42.7917 114.367H28.425V104.5H47.8583C48.3694 104.5 48.7472 104.344 48.9917 104.033C49.2583 103.7 49.3917 103.344 49.3917 102.967V95C49.3917 94.5556 49.2694 94.1889 49.025 93.9C48.7806 93.6111 48.4028 93.4667 47.8917 93.4667H17.2917C16.9583 93.4889 16.6583 93.6333 16.3917 93.9C16.1472 94.1667 16.025 94.5222 16.025 94.9667V139.667ZM21.1917 99C21.1917 98.6222 21.2917 98.3667 21.4917 98.2333L21.6583 98.1667C21.7028 98.1444 21.7806 98.1333 21.8917 98.1333C21.9361 98.1111 22.0139 98.1 22.125 98.1H43.8583C44.1917 98.1 44.425 98.1667 44.5583 98.3C44.7139 98.4333 44.7917 98.6667 44.7917 99C44.7917 99.6 44.4806 99.9 43.8583 99.9H23.025V118.567H39.3917C40.0139 118.567 40.325 118.867 40.325 119.467C40.325 120.089 40.0139 120.4 39.3917 120.4H23.025V136.1C23.025 136.722 22.725 137.033 22.125 137.033C21.5028 137.033 21.1917 136.722 21.1917 136.1V99ZM62.6292 99C62.6514 98.7111 62.7181 98.4889 62.8292 98.3333C62.9403 98.1778 63.1403 98.1 63.4292 98.1H85.9625C86.2736 98.1 86.4958 98.1667 86.6292 98.3C86.7847 98.4333 86.8625 98.6667 86.8625 99C86.8625 99.6 86.5625 99.9 85.9625 99.9H64.4625V116.1H81.4625C82.0847 116.1 82.3958 116.411 82.3958 117.033C82.3958 117.589 82.0847 117.867 81.4625 117.867H64.4625V134.433H87.6625C88.2625 134.433 88.5625 134.744 88.5625 135.367C88.5625 135.967 88.2625 136.267 87.6625 136.267H63.4292C63.1403 136.267 62.9292 136.178 62.7958 136C62.6847 135.8 62.6292 135.589 62.6292 135.367V99ZM57.2292 139.633C57.2292 140.1 57.3514 140.444 57.5958 140.667C57.8403 140.889 58.1847 141 58.6292 141H90.9958C91.4625 141 91.8403 140.867 92.1292 140.6C92.4181 140.311 92.5625 139.956 92.5625 139.533V131.467C92.5625 130.489 92.0847 130 91.1292 130H69.6292V121.833H85.6625C86.1069 121.833 86.4403 121.7 86.6625 121.433C86.9069 121.167 87.0292 120.878 87.0292 120.567V113.633C87.0292 113.189 86.8958 112.878 86.6292 112.7C86.3625 112.5 86.0292 112.4 85.6292 112.4H69.6292V104.5H90.3625C90.8736 104.5 91.2514 104.344 91.4958 104.033C91.7403 103.7 91.8625 103.344 91.8625 102.967V95C91.8625 94.5556 91.7292 94.1889 91.4625 93.9C91.2181 93.6111 90.8625 93.4667 90.3958 93.4667H58.6292C58.1847 93.4667 57.8403 93.6111 57.5958 93.9C57.3514 94.1667 57.2292 94.5222 57.2292 94.9667V139.633ZM105.817 99C105.839 98.7111 105.906 98.4889 106.017 98.3333C106.128 98.1778 106.328 98.1 106.617 98.1H129.15C129.461 98.1 129.683 98.1667 129.817 98.3C129.972 98.4333 130.05 98.6667 130.05 99C130.05 99.6 129.75 99.9 129.15 99.9H107.65V116.1H124.65C125.272 116.1 125.583 116.411 125.583 117.033C125.583 117.589 125.272 117.867 124.65 117.867H107.65V134.433H130.85C131.45 134.433 131.75 134.744 131.75 135.367C131.75 135.967 131.45 136.267 130.85 136.267H106.617C106.328 136.267 106.117 136.178 105.983 136C105.872 135.8 105.817 135.589 105.817 135.367V99ZM100.417 139.633C100.417 140.1 100.539 140.444 100.783 140.667C101.028 140.889 101.372 141 101.817 141H134.183C134.65 141 135.028 140.867 135.317 140.6C135.606 140.311 135.75 139.956 135.75 139.533V131.467C135.75 130.489 135.272 130 134.317 130H112.817V121.833H128.85C129.294 121.833 129.628 121.7 129.85 121.433C130.094 121.167 130.217 120.878 130.217 120.567V113.633C130.217 113.189 130.083 112.878 129.817 112.7C129.55 112.5 129.217 112.4 128.817 112.4H112.817V104.5H133.55C134.061 104.5 134.439 104.344 134.683 104.033C134.928 103.7 135.05 103.344 135.05 102.967V95C135.05 94.5556 134.917 94.1889 134.65 93.9C134.406 93.6111 134.05 93.4667 133.583 93.4667H101.817C101.372 93.4667 101.028 93.6111 100.783 93.9C100.539 94.1667 100.417 94.5222 100.417 94.9667V139.633ZM147.704 99C147.704 98.4 148.015 98.1 148.638 98.1C149.238 98.1 149.538 98.4 149.538 99V134.067H168.838C169.46 134.067 169.771 134.378 169.771 135C169.771 135.578 169.46 135.867 168.838 135.867H148.638C148.304 135.867 148.06 135.767 147.904 135.567C147.771 135.367 147.704 135.178 147.704 135V99ZM142.471 139.6C142.471 140.533 142.938 141 143.871 141H172.438C172.882 140.978 173.226 140.822 173.471 140.533C173.738 140.244 173.871 139.911 173.871 139.533V131.1C173.871 130.656 173.726 130.311 173.438 130.067C173.171 129.8 172.838 129.667 172.438 129.667H154.838V94.8667C154.838 94.4222 154.682 94.0778 154.371 93.8333C154.082 93.5667 153.749 93.4333 153.371 93.4333H143.904C143.46 93.4333 143.104 93.5778 142.838 93.8667C142.593 94.1556 142.471 94.4889 142.471 94.8667V139.6ZM234.688 133.667C233.176 134.667 231.543 135.444 229.788 136C228.032 136.556 226.188 136.844 224.254 136.867H224.054C221.365 136.867 218.832 136.356 216.454 135.333C214.099 134.289 212.032 132.878 210.254 131.1C208.499 129.322 207.11 127.244 206.088 124.867C205.065 122.467 204.554 119.911 204.554 117.2C204.554 114.489 205.065 111.933 206.088 109.533C207.11 107.133 208.499 105.044 210.254 103.267C212.032 101.467 214.099 100.044 216.454 99C218.832 97.9556 221.365 97.4333 224.054 97.4333C225.61 97.4333 227.065 97.6 228.421 97.9333C229.776 98.2667 231.121 98.7667 232.454 99.4333C232.521 99.5444 232.576 99.6667 232.621 99.8C232.688 99.9111 232.721 100.044 232.721 100.2C232.721 100.467 232.632 100.689 232.454 100.867C232.276 101.044 232.054 101.133 231.788 101.133C231.588 101.133 231.399 101.1 231.221 101.033C230.088 100.478 228.943 100.078 227.788 99.8333C226.632 99.5667 225.388 99.4333 224.054 99.4333C221.632 99.4333 219.354 99.9 217.221 100.833C215.088 101.767 213.221 103.044 211.621 104.667C210.043 106.267 208.788 108.144 207.854 110.3C206.943 112.456 206.488 114.756 206.488 117.2C206.488 119.644 206.943 121.944 207.854 124.1C208.788 126.233 210.043 128.1 211.621 129.7C213.221 131.3 215.088 132.567 217.221 133.5C219.354 134.433 221.632 134.9 224.054 134.9H224.588C226.188 134.856 227.721 134.6 229.188 134.133C230.676 133.667 232.076 133.022 233.388 132.2V125.233C233.388 124.633 233.688 124.333 234.288 124.333C234.621 124.333 234.854 124.411 234.988 124.567C235.121 124.7 235.188 124.922 235.188 125.233V132.5C235.188 132.678 235.165 132.878 235.121 133.1C235.076 133.3 234.932 133.489 234.688 133.667ZM231.321 106.9C231.654 107.1 231.943 107.2 232.188 107.2C232.388 107.2 232.576 107.133 232.754 107C232.932 106.867 233.11 106.689 233.288 106.467L238.454 99C238.61 98.7556 238.688 98.5 238.688 98.2333C238.688 97.9667 238.588 97.7222 238.388 97.5C238.21 97.2778 237.999 97.0889 237.754 96.9333C235.732 95.5778 233.588 94.5444 231.321 93.8333C229.054 93.1222 226.643 92.7667 224.088 92.7667C220.71 92.7667 217.532 93.4111 214.554 94.7C211.599 95.9889 209.01 97.7444 206.788 99.9667C204.588 102.189 202.843 104.789 201.554 107.767C200.288 110.744 199.654 113.922 199.654 117.3C199.654 120.678 200.288 123.856 201.554 126.833C202.843 129.789 204.588 132.367 206.788 134.567C209.01 136.767 211.599 138.511 214.554 139.8C217.532 141.067 220.71 141.7 224.088 141.7C225.354 141.7 226.665 141.622 228.021 141.467C229.399 141.311 230.743 141.078 232.054 140.767C233.388 140.433 234.654 140.022 235.854 139.533C237.076 139.022 238.188 138.433 239.188 137.767C239.81 137.389 240.121 136.922 240.121 136.367V120.867C240.121 120.422 239.932 120.078 239.554 119.833C239.199 119.589 238.865 119.467 238.554 119.467H229.854C229.388 119.467 229.032 119.6 228.788 119.867C228.565 120.133 228.454 120.467 228.454 120.867V129.267C227.61 129.444 226.821 129.589 226.088 129.7C225.376 129.789 224.632 129.833 223.854 129.833C222.099 129.833 220.476 129.511 218.988 128.867C217.521 128.2 216.254 127.3 215.188 126.167C214.121 125.011 213.288 123.667 212.688 122.133C212.11 120.6 211.821 118.956 211.821 117.2C211.821 115.444 212.11 113.8 212.688 112.267C213.288 110.711 214.121 109.356 215.188 108.2C216.254 107.044 217.521 106.133 218.988 105.467C220.476 104.8 222.099 104.467 223.854 104.467C225.276 104.467 226.61 104.678 227.854 105.1C229.099 105.522 230.254 106.122 231.321 106.9ZM247.183 117.3C247.183 120.678 247.817 123.856 249.083 126.833C250.372 129.789 252.117 132.367 254.317 134.567C256.539 136.767 259.139 138.511 262.117 139.8C265.094 141.067 268.272 141.7 271.65 141.7C275.028 141.7 278.194 141.067 281.15 139.8C284.128 138.511 286.728 136.767 288.95 134.567C291.172 132.367 292.917 129.789 294.183 126.833C295.472 123.856 296.117 120.678 296.117 117.3C296.117 113.922 295.472 110.744 294.183 107.767C292.917 104.789 291.172 102.189 288.95 99.9667C286.728 97.7444 284.128 95.9889 281.15 94.7C278.194 93.4111 275.028 92.7667 271.65 92.7667C268.272 92.7667 265.094 93.4111 262.117 94.7C259.139 95.9889 256.539 97.7444 254.317 99.9667C252.117 102.189 250.372 104.789 249.083 107.767C247.817 110.744 247.183 113.922 247.183 117.3ZM259.55 117.267C259.55 115.489 259.85 113.833 260.45 112.3C261.05 110.767 261.883 109.422 262.95 108.267C264.039 107.111 265.317 106.211 266.783 105.567C268.272 104.9 269.894 104.567 271.65 104.567C273.428 104.567 275.05 104.9 276.517 105.567C278.006 106.211 279.283 107.111 280.35 108.267C281.439 109.422 282.283 110.767 282.883 112.3C283.483 113.833 283.783 115.489 283.783 117.267C283.783 119.022 283.483 120.678 282.883 122.233C282.283 123.767 281.439 125.1 280.35 126.233C279.283 127.367 278.006 128.267 276.517 128.933C275.05 129.578 273.428 129.9 271.65 129.9C269.894 129.9 268.272 129.578 266.783 128.933C265.317 128.267 264.039 127.367 262.95 126.233C261.883 125.1 261.05 123.767 260.45 122.233C259.85 120.678 259.55 119.022 259.55 117.267ZM252.083 117.2C252.083 114.489 252.594 111.933 253.617 109.533C254.639 107.133 256.028 105.044 257.783 103.267C259.561 101.467 261.639 100.044 264.017 99C266.394 97.9556 268.928 97.4333 271.617 97.4333C274.283 97.4333 276.794 97.9556 279.15 99C281.506 100.044 283.561 101.467 285.317 103.267C287.094 105.044 288.494 107.133 289.517 109.533C290.561 111.933 291.083 114.489 291.083 117.2C291.083 119.911 290.561 122.467 289.517 124.867C288.494 127.244 287.094 129.322 285.317 131.1C283.561 132.878 281.506 134.289 279.15 135.333C276.794 136.356 274.283 136.867 271.617 136.867C268.928 136.867 266.394 136.356 264.017 135.333C261.639 134.289 259.561 132.878 257.783 131.1C256.028 129.322 254.639 127.244 253.617 124.867C252.594 122.467 252.083 119.911 252.083 117.2ZM254.05 117.2C254.05 119.644 254.506 121.944 255.417 124.1C256.35 126.233 257.606 128.1 259.183 129.7C260.783 131.3 262.65 132.567 264.783 133.5C266.917 134.433 269.194 134.9 271.617 134.9C274.017 134.9 276.272 134.433 278.383 133.5C280.517 132.567 282.383 131.3 283.983 129.7C285.583 128.1 286.839 126.233 287.75 124.1C288.683 121.944 289.15 119.644 289.15 117.2C289.15 114.756 288.683 112.456 287.75 110.3C286.839 108.144 285.583 106.267 283.983 104.667C282.383 103.044 280.517 101.767 278.383 100.833C276.272 99.9 274.017 99.4333 271.617 99.4333C269.194 99.4333 266.917 99.9 264.783 100.833C262.65 101.767 260.783 103.044 259.183 104.667C257.606 106.267 256.35 108.144 255.417 110.3C254.506 112.456 254.05 114.756 254.05 117.2ZM301.746 117.3C301.746 120.678 302.379 123.856 303.646 126.833C304.935 129.789 306.679 132.367 308.879 134.567C311.101 136.767 313.701 138.511 316.679 139.8C319.657 141.067 322.835 141.7 326.213 141.7C329.59 141.7 332.757 141.067 335.713 139.8C338.69 138.511 341.29 136.767 343.513 134.567C345.735 132.367 347.479 129.789 348.746 126.833C350.035 123.856 350.679 120.678 350.679 117.3C350.679 113.922 350.035 110.744 348.746 107.767C347.479 104.789 345.735 102.189 343.513 99.9667C341.29 97.7444 338.69 95.9889 335.713 94.7C332.757 93.4111 329.59 92.7667 326.213 92.7667C322.835 92.7667 319.657 93.4111 316.679 94.7C313.701 95.9889 311.101 97.7444 308.879 99.9667C306.679 102.189 304.935 104.789 303.646 107.767C302.379 110.744 301.746 113.922 301.746 117.3ZM314.113 117.267C314.113 115.489 314.413 113.833 315.013 112.3C315.613 110.767 316.446 109.422 317.513 108.267C318.601 107.111 319.879 106.211 321.346 105.567C322.835 104.9 324.457 104.567 326.213 104.567C327.99 104.567 329.613 104.9 331.079 105.567C332.568 106.211 333.846 107.111 334.913 108.267C336.001 109.422 336.846 110.767 337.446 112.3C338.046 113.833 338.346 115.489 338.346 117.267C338.346 119.022 338.046 120.678 337.446 122.233C336.846 123.767 336.001 125.1 334.913 126.233C333.846 127.367 332.568 128.267 331.079 128.933C329.613 129.578 327.99 129.9 326.213 129.9C324.457 129.9 322.835 129.578 321.346 128.933C319.879 128.267 318.601 127.367 317.513 126.233C316.446 125.1 315.613 123.767 315.013 122.233C314.413 120.678 314.113 119.022 314.113 117.267ZM306.646 117.2C306.646 114.489 307.157 111.933 308.179 109.533C309.201 107.133 310.59 105.044 312.346 103.267C314.124 101.467 316.201 100.044 318.579 99C320.957 97.9556 323.49 97.4333 326.179 97.4333C328.846 97.4333 331.357 97.9556 333.713 99C336.068 100.044 338.124 101.467 339.879 103.267C341.657 105.044 343.057 107.133 344.079 109.533C345.124 111.933 345.646 114.489 345.646 117.2C345.646 119.911 345.124 122.467 344.079 124.867C343.057 127.244 341.657 129.322 339.879 131.1C338.124 132.878 336.068 134.289 333.713 135.333C331.357 136.356 328.846 136.867 326.179 136.867C323.49 136.867 320.957 136.356 318.579 135.333C316.201 134.289 314.124 132.878 312.346 131.1C310.59 129.322 309.201 127.244 308.179 124.867C307.157 122.467 306.646 119.911 306.646 117.2ZM308.613 117.2C308.613 119.644 309.068 121.944 309.979 124.1C310.913 126.233 312.168 128.1 313.746 129.7C315.346 131.3 317.213 132.567 319.346 133.5C321.479 134.433 323.757 134.9 326.179 134.9C328.579 134.9 330.835 134.433 332.946 133.5C335.079 132.567 336.946 131.3 338.546 129.7C340.146 128.1 341.401 126.233 342.313 124.1C343.246 121.944 343.713 119.644 343.713 117.2C343.713 114.756 343.246 112.456 342.313 110.3C341.401 108.144 340.146 106.267 338.546 104.667C336.946 103.044 335.079 101.767 332.946 100.833C330.835 99.9 328.579 99.4333 326.179 99.4333C323.757 99.4333 321.479 99.9 319.346 100.833C317.213 101.767 315.346 103.044 313.746 104.667C312.168 106.267 310.913 108.144 309.979 110.3C309.068 112.456 308.613 114.756 308.613 117.2ZM374.608 104.933C376.364 104.933 378.019 105.244 379.575 105.867C381.131 106.467 382.486 107.322 383.642 108.433C384.797 109.522 385.708 110.822 386.375 112.333C387.042 113.822 387.375 115.467 387.375 117.267C387.375 118.956 387.075 120.511 386.475 121.933C385.897 123.356 385.086 124.6 384.042 125.667C383.019 126.733 381.808 127.589 380.408 128.233C379.031 128.878 377.542 129.267 375.942 129.4C375.475 129.444 375.008 129.478 374.542 129.5C374.075 129.522 373.586 129.533 373.075 129.533H370.408V104.933H374.608ZM363.408 99.1667C363.453 98.5444 363.719 98.2333 364.208 98.2333H375.608C378.253 98.2333 380.742 98.7222 383.075 99.7C385.408 100.678 387.442 102.022 389.175 103.733C390.931 105.422 392.319 107.433 393.342 109.767C394.364 112.078 394.875 114.578 394.875 117.267C394.875 119.956 394.364 122.489 393.342 124.867C392.319 127.222 390.931 129.278 389.175 131.033C387.419 132.789 385.364 134.178 383.008 135.2C380.653 136.2 378.153 136.7 375.508 136.7H364.208C363.942 136.7 363.742 136.611 363.608 136.433C363.475 136.256 363.408 136.044 363.408 135.8V99.1667ZM399.675 117.3C399.675 113.922 399.031 110.789 397.742 107.9C396.475 104.989 394.731 102.467 392.508 100.333C390.308 98.1778 387.719 96.4889 384.742 95.2667C381.786 94.0444 378.631 93.4333 375.275 93.4333H359.475C358.986 93.4333 358.619 93.5778 358.375 93.8667C358.131 94.1556 358.008 94.5222 358.008 94.9667V139.667C358.008 140.222 358.153 140.589 358.442 140.767C358.753 140.922 359.097 141 359.475 141H375.275C378.653 141 381.819 140.4 384.775 139.2C387.753 138 390.342 136.344 392.542 134.233C394.742 132.1 396.475 129.589 397.742 126.7C399.031 123.811 399.675 120.678 399.675 117.3ZM375.608 134.9C377.964 134.9 380.186 134.444 382.275 133.533C384.386 132.6 386.231 131.333 387.808 129.733C389.386 128.133 390.631 126.267 391.542 124.133C392.475 121.978 392.942 119.689 392.942 117.267C392.942 114.844 392.475 112.589 391.542 110.5C390.631 108.389 389.386 106.567 387.808 105.033C386.231 103.478 384.375 102.267 382.242 101.4C380.131 100.511 377.886 100.067 375.508 100.067H365.242V134.9H375.608ZM411.913 135.667C411.913 135.378 412.001 135.144 412.179 134.967C412.357 134.789 412.579 134.7 412.846 134.7C413.135 134.7 413.368 134.789 413.546 134.967C413.724 135.144 413.813 135.378 413.813 135.667C413.813 135.933 413.724 136.156 413.546 136.333C413.368 136.511 413.135 136.6 412.846 136.6C412.579 136.6 412.357 136.511 412.179 136.333C412.001 136.156 411.913 135.933 411.913 135.667ZM407.179 139.533C407.179 140.511 407.646 141 408.579 141H417.013C417.524 141 417.89 140.856 418.113 140.567C418.357 140.256 418.479 139.911 418.479 139.533V131.8C418.479 131.356 418.324 131.011 418.013 130.767C417.724 130.5 417.39 130.367 417.013 130.367H408.579C408.113 130.367 407.757 130.5 407.513 130.767C407.29 131.011 407.179 131.356 407.179 131.8V139.533Z" fill="#FF3E79"/>
</svg>
